[img]http://www.khaolaknews.com/wp-content/uploads/2011/03/f1.jpg[/img]

Formula One 2011 Season

Race 19: Brazillian Grand Prix 

Record Source: BBC One HD
Original Format: MPEG TS Stream
Date: Saturday 26th October 2011
Time: 15:00 to 17:25

Brazillian Grand Prix Qualifying HD

Jake Humphrey, Martin Brundle & David Coulthard present the BBC F1 High
Definition coverage of the Last Qualifying Session of the year for the 19th Race meeting of the 2011 Formula One Season, The Brazillian Grand Prix from the Interlargos.

I hope you have all appreciated my Formula 1 torrents for 2011, I will be uploading the 2012 season with coverage from the BBC for the races they cover and the remainder from SKY SPORTS!!

***BREAKING NEWS*** As you know Sky Sports are taking over the coverage of F1 for next year here in the UK. We have just had confirmed that they are launching a totally dedicated F1 channel rather than showing the coverage over their exisitng sports channels. SKY SPORTS F1 HD will be launched covering 

ALL practice, Qualifying & Races Uninterrupted coverage. Also Martin Brundle is to be joining SKY's as their main commentator! Excellent News for 2012! 

Enjoy, TheBlackKnight



Complete name                    : F1 2011 Race 19 Brazillian Qualifing HD 1080 H264 AC3                

Format                           : Matroska
Format version                   : Version 2
File size                        : 3.08 GiB
Duration                         : 2h 21mn
Overall bit rate                 : 3 129 Kbps
Writing application              : HandBrake 0.9.5
Writing library                  : libmkv 0.6.4.1

Video
ID                               : 1
Format                           : AVC
Format/Info                      : Advanced Video Codec
Format profile                   : Main@L4.0
Format settings, CABAC           : Yes
Format settings, ReFrames        : 4 frames
Codec ID                         : V_MPEG4/ISO/AVC
Duration                         : 2h 21mn
Bit rate                         : 3 000 Kbps
Width                            : 1 440 pixels
Height                           : 1 080 pixels
Display aspect ratio             : 16:9
Frame rate mode                  : Variable
Frame rate                       : 25.000 fps
Color space                      : YUV
Chroma subsampling               : 4:2:0
Bit depth                        : 8 bits
Scan type                        : Progressive
Bits/(Pixel*Frame)               : 0.077
Stream size                      : 2.90 GiB (94%)
Writing library                  : x264 core 112
Language                         : English
Color primaries                  : BT.709-5, BT.1361, IEC 61966-2-4, SMPTE RP177
Transfer characteristics         : BT.709-5, BT.1361
Matrix coefficients              : BT.709-5, BT.1361, IEC 61966-2-4 709, SMPTE RP177

Audio
ID                               : 2
Format                           : AC-3
Format/Info                      : Audio Coding 3
Mode extension                   : CM (complete main)
Codec ID                         : A_AC3
Duration                         : 2h 21mn
Bit rate mode                    : Constant
Bit rate                         : 128 Kbps
Channel(s)                       : 2 channels
Channel positions                : Front: L R
Sampling rate                    : 48.0 KHz
Bit depth                        : 16 bits
Compression mode                 : Lossy
Stream size                      : 129 MiB (4%)
Language                         : English

   
